<svg width="186" height="18" viewBox="0 0 186 18" fill="none" xmlns="http://www.w3.org/2000/svg">
<path d="M11.6396 6.17188C11.5303 5.79167 11.3766 5.45573 11.1787 5.16406C10.9808 4.86719 10.7386 4.61719 10.4521 4.41406C10.1709 4.20573 9.84798 4.04687 9.4834 3.9375C9.12402 3.82813 8.72559 3.77344 8.28809 3.77344C7.47038 3.77344 6.75163 3.97656 6.13184 4.38281C5.51725 4.78906 5.03809 5.38021 4.69434 6.15625C4.35059 6.92708 4.17871 7.86979 4.17871 8.98437C4.17871 10.099 4.34798 11.0469 4.68652 11.8281C5.02507 12.6094 5.50423 13.2057 6.12402 13.6172C6.74382 14.0234 7.47559 14.2266 8.31934 14.2266C9.08496 14.2266 9.73861 14.0911 10.2803 13.8203C10.8271 13.5443 11.2438 13.1562 11.5303 12.6562C11.8219 12.1562 11.9678 11.5651 11.9678 10.8828L12.6553 10.9844H8.53027V8.4375H15.2256V10.4531C15.2256 11.8594 14.9287 13.0677 14.335 14.0781C13.7412 15.0833 12.9235 15.8594 11.8818 16.4062C10.8402 16.9479 9.64746 17.2187 8.30371 17.2187C6.80371 17.2187 5.486 16.888 4.35059 16.2266C3.21517 15.5599 2.32975 14.6146 1.69434 13.3906C1.06413 12.1615 0.749023 10.7031 0.749023 9.01562C0.749023 7.71875 0.936523 6.5625 1.31152 5.54687C1.69173 4.52604 2.22298 3.66146 2.90527 2.95313C3.58757 2.24479 4.38184 1.70573 5.28809 1.33594C6.19434 0.966145 7.17611 0.781249 8.2334 0.781249C9.13965 0.781249 9.9834 0.914062 10.7646 1.17969C11.5459 1.4401 12.2386 1.8099 12.8428 2.28906C13.4521 2.76823 13.9495 3.33854 14.335 4C14.7204 4.65625 14.9678 5.38021 15.0771 6.17188H11.6396ZM21.0322 1V17H17.7041V1H21.0322ZM29.1201 17.2344C27.9066 17.2344 26.8571 16.9766 25.9717 16.4609C25.0915 15.9401 24.4118 15.2161 23.9326 14.2891C23.4535 13.3568 23.2139 12.276 23.2139 11.0469C23.2139 9.80729 23.4535 8.72396 23.9326 7.79687C24.4118 6.86458 25.0915 6.14062 25.9717 5.625C26.8571 5.10417 27.9066 4.84375 29.1201 4.84375C30.3337 4.84375 31.3805 5.10417 32.2607 5.625C33.1462 6.14062 33.8285 6.86458 34.3076 7.79687C34.7868 8.72396 35.0264 9.80729 35.0264 11.0469C35.0264 12.276 34.7868 13.3568 34.3076 14.2891C33.8285 15.2161 33.1462 15.9401 32.2607 16.4609C31.3805 16.9766 30.3337 17.2344 29.1201 17.2344ZM29.1357 14.6562C29.6878 14.6562 30.1488 14.5 30.5186 14.1875C30.8883 13.8698 31.167 13.4375 31.3545 12.8906C31.5472 12.3437 31.6436 11.7214 31.6436 11.0234C31.6436 10.3255 31.5472 9.70313 31.3545 9.15625C31.167 8.60937 30.8883 8.17708 30.5186 7.85937C30.1488 7.54167 29.6878 7.38281 29.1357 7.38281C28.5785 7.38281 28.1097 7.54167 27.7295 7.85937C27.3545 8.17708 27.0706 8.60937 26.8779 9.15625C26.6904 9.70313 26.5967 10.3255 26.5967 11.0234C26.5967 11.7214 26.6904 12.3437 26.8779 12.8906C27.0706 13.4375 27.3545 13.8698 27.7295 14.1875C28.1097 14.5 28.5785 14.6562 29.1357 14.6562ZM37.2529 17V1H40.5811V7.01562H40.6826C40.8285 6.69271 41.0394 6.36458 41.3154 6.03125C41.5967 5.69271 41.9613 5.41146 42.4092 5.1875C42.8623 4.95833 43.4248 4.84375 44.0967 4.84375C44.9717 4.84375 45.779 5.07292 46.5186 5.53125C47.2581 5.98437 47.8493 6.66927 48.292 7.58594C48.7347 8.4974 48.9561 9.64062 48.9561 11.0156C48.9561 12.3542 48.7399 13.4844 48.3076 14.4062C47.8805 15.3229 47.2972 16.0182 46.5576 16.4922C45.8232 16.9609 45.0003 17.1953 44.0889 17.1953C43.443 17.1953 42.8936 17.0885 42.4404 16.875C41.9925 16.6615 41.6253 16.3932 41.3389 16.0703C41.0524 15.7422 40.8337 15.4115 40.6826 15.0781H40.5342V17H37.2529ZM40.5107 11C40.5107 11.7135 40.6097 12.3359 40.8076 12.8672C41.0055 13.3984 41.292 13.8125 41.667 14.1094C42.042 14.401 42.4977 14.5469 43.0342 14.5469C43.5758 14.5469 44.0342 14.3984 44.4092 14.1016C44.7842 13.7995 45.068 13.3828 45.2607 12.8516C45.4587 12.3151 45.5576 11.6979 45.5576 11C45.5576 10.3073 45.4613 9.69792 45.2686 9.17187C45.0758 8.64583 44.792 8.23437 44.417 7.9375C44.042 7.64062 43.5811 7.49219 43.0342 7.49219C42.4925 7.49219 42.0342 7.63542 41.6592 7.92187C41.2894 8.20833 41.0055 8.61458 40.8076 9.14062C40.6097 9.66667 40.5107 10.2865 40.5107 11ZM54.5986 17.2266C53.833 17.2266 53.1507 17.0938 52.5518 16.8281C51.9528 16.5573 51.4788 16.1589 51.1299 15.6328C50.7861 15.1016 50.6143 14.4401 50.6143 13.6484C50.6143 12.9818 50.7367 12.4219 50.9814 11.9687C51.2262 11.5156 51.5596 11.151 51.9814 10.875C52.4033 10.599 52.8825 10.3906 53.4189 10.25C53.9606 10.1094 54.5283 10.0104 55.1221 9.95312C55.82 9.88021 56.3825 9.8125 56.8096 9.75C57.2367 9.68229 57.5465 9.58333 57.7393 9.45312C57.932 9.32292 58.0283 9.13021 58.0283 8.875V8.82812C58.0283 8.33333 57.8721 7.95052 57.5596 7.67969C57.2523 7.40885 56.8148 7.27344 56.2471 7.27344C55.6481 7.27344 55.1715 7.40625 54.8174 7.67187C54.4632 7.93229 54.2288 8.26042 54.1143 8.65625L51.0361 8.40625C51.1924 7.67708 51.4997 7.04687 51.958 6.51562C52.4163 5.97917 53.0075 5.56771 53.7314 5.28125C54.4606 4.98958 55.3044 4.84375 56.2627 4.84375C56.9294 4.84375 57.5674 4.92187 58.1768 5.07812C58.7913 5.23437 59.3356 5.47656 59.8096 5.80469C60.2887 6.13281 60.6663 6.55469 60.9424 7.07031C61.2184 7.58073 61.3564 8.19271 61.3564 8.90625V17H58.2002V15.3359H58.1064C57.9137 15.7109 57.6559 16.0417 57.333 16.3281C57.0101 16.6094 56.6221 16.8307 56.1689 16.9922C55.7158 17.1484 55.1924 17.2266 54.5986 17.2266ZM55.5518 14.9297C56.0413 14.9297 56.4736 14.8333 56.8486 14.6406C57.2236 14.4427 57.5179 14.1771 57.7314 13.8438C57.945 13.5104 58.0518 13.1328 58.0518 12.7109V11.4375C57.9476 11.5052 57.8044 11.5677 57.6221 11.625C57.445 11.6771 57.2445 11.7266 57.0205 11.7734C56.7965 11.8151 56.5726 11.8542 56.3486 11.8906C56.1247 11.9219 55.9215 11.9505 55.7393 11.9766C55.3486 12.0339 55.0075 12.125 54.7158 12.25C54.4242 12.375 54.1976 12.5443 54.0361 12.7578C53.8747 12.9661 53.7939 13.2266 53.7939 13.5391C53.7939 13.9922 53.958 14.3385 54.2861 14.5781C54.6195 14.8125 55.0413 14.9297 55.5518 14.9297ZM67.2666 1V17H63.9385V1H67.2666ZM75.0869 1H79.2588L83.665 11.75H83.8525L88.2588 1H92.4307V17H89.1494V6.58594H89.0166L84.876 16.9219H82.6416L78.501 6.54687H78.3682V17H75.0869V1ZM98.5771 17.2266C97.8115 17.2266 97.1292 17.0938 96.5303 16.8281C95.9313 16.5573 95.4574 16.1589 95.1084 15.6328C94.7646 15.1016 94.5928 14.4401 94.5928 13.6484C94.5928 12.9818 94.7152 12.4219 94.96 11.9687C95.2048 11.5156 95.5381 11.151 95.96 10.875C96.3818 10.599 96.861 10.3906 97.3975 10.25C97.9391 10.1094 98.5068 10.0104 99.1006 9.95312C99.7985 9.88021 100.361 9.8125 100.788 9.75C101.215 9.68229 101.525 9.58333 101.718 9.45312C101.91 9.32292 102.007 9.13021 102.007 8.875V8.82812C102.007 8.33333 101.851 7.95052 101.538 7.67969C101.231 7.40885 100.793 7.27344 100.226 7.27344C99.6266 7.27344 99.1501 7.40625 98.7959 7.67187C98.4417 7.93229 98.2074 8.26042 98.0928 8.65625L95.0146 8.40625C95.1709 7.67708 95.4782 7.04687 95.9365 6.51562C96.3949 5.97917 96.986 5.56771 97.71 5.28125C98.4391 4.98958 99.2829 4.84375 100.241 4.84375C100.908 4.84375 101.546 4.92187 102.155 5.07812C102.77 5.23437 103.314 5.47656 103.788 5.80469C104.267 6.13281 104.645 6.55469 104.921 7.07031C105.197 7.58073 105.335 8.19271 105.335 8.90625V17H102.179V15.3359H102.085C101.892 15.7109 101.634 16.0417 101.312 16.3281C100.989 16.6094 100.601 16.8307 100.147 16.9922C99.6943 17.1484 99.1709 17.2266 98.5771 17.2266ZM99.5303 14.9297C100.02 14.9297 100.452 14.8333 100.827 14.6406C101.202 14.4427 101.496 14.1771 101.71 13.8438C101.924 13.5104 102.03 13.1328 102.03 12.7109V11.4375C101.926 11.5052 101.783 11.5677 101.601 11.625C101.424 11.6771 101.223 11.7266 100.999 11.7734C100.775 11.8151 100.551 11.8542 100.327 11.8906C100.103 11.9219 99.9001 11.9505 99.7178 11.9766C99.3271 12.0339 98.986 12.125 98.6943 12.25C98.4027 12.375 98.1761 12.5443 98.0146 12.7578C97.8532 12.9661 97.7725 13.2266 97.7725 13.5391C97.7725 13.9922 97.9365 14.3385 98.2646 14.5781C98.598 14.8125 99.0199 14.9297 99.5303 14.9297ZM107.917 17V5H111.245V17H107.917ZM109.589 3.45312C109.094 3.45312 108.67 3.28906 108.315 2.96094C107.966 2.6276 107.792 2.22917 107.792 1.76562C107.792 1.30729 107.966 0.914062 108.315 0.585938C108.67 0.252604 109.094 0.0859367 109.589 0.0859367C110.084 0.0859367 110.506 0.252604 110.854 0.585938C111.209 0.914062 111.386 1.30729 111.386 1.76562C111.386 2.22917 111.209 2.6276 110.854 2.96094C110.506 3.28906 110.084 3.45312 109.589 3.45312ZM117.239 10.0625V17H113.911V5H117.083V7.11719H117.224C117.489 6.41927 117.935 5.86719 118.56 5.46094C119.185 5.04948 119.942 4.84375 120.833 4.84375C121.666 4.84375 122.393 5.02604 123.013 5.39062C123.632 5.75521 124.114 6.27604 124.458 6.95312C124.802 7.625 124.974 8.42708 124.974 9.35937V17H121.646V9.95312C121.651 9.21875 121.463 8.64583 121.083 8.23438C120.703 7.81771 120.179 7.60937 119.513 7.60937C119.065 7.60937 118.669 7.70573 118.325 7.89844C117.987 8.09115 117.721 8.3724 117.528 8.74219C117.341 9.10677 117.244 9.54688 117.239 10.0625ZM132.579 17V14.9922L140.563 3.78906H132.563V1H144.813V3.00781L136.821 14.2109H144.829V17H132.579ZM152.784 17.2344C151.571 17.2344 150.521 16.9766 149.636 16.4609C148.756 15.9401 148.076 15.2161 147.597 14.2891C147.118 13.3568 146.878 12.276 146.878 11.0469C146.878 9.80729 147.118 8.72396 147.597 7.79687C148.076 6.86458 148.756 6.14062 149.636 5.625C150.521 5.10417 151.571 4.84375 152.784 4.84375C153.998 4.84375 155.045 5.10417 155.925 5.625C156.81 6.14062 157.493 6.86458 157.972 7.79687C158.451 8.72396 158.69 9.80729 158.69 11.0469C158.69 12.276 158.451 13.3568 157.972 14.2891C157.493 15.2161 156.81 15.9401 155.925 16.4609C155.045 16.9766 153.998 17.2344 152.784 17.2344ZM152.8 14.6562C153.352 14.6562 153.813 14.5 154.183 14.1875C154.552 13.8698 154.831 13.4375 155.019 12.8906C155.211 12.3437 155.308 11.7214 155.308 11.0234C155.308 10.3255 155.211 9.70313 155.019 9.15625C154.831 8.60937 154.552 8.17708 154.183 7.85937C153.813 7.54167 153.352 7.38281 152.8 7.38281C152.243 7.38281 151.774 7.54167 151.394 7.85937C151.019 8.17708 150.735 8.60937 150.542 9.15625C150.354 9.70313 150.261 10.3255 150.261 11.0234C150.261 11.7214 150.354 12.3437 150.542 12.8906C150.735 13.4375 151.019 13.8698 151.394 14.1875C151.774 14.5 152.243 14.6562 152.8 14.6562ZM164.183 10.0625V17H160.854V5H164.026V7.11719H164.167C164.433 6.41927 164.878 5.86719 165.503 5.46094C166.128 5.04948 166.886 4.84375 167.776 4.84375C168.61 4.84375 169.336 5.02604 169.956 5.39062C170.576 5.75521 171.058 6.27604 171.401 6.95312C171.745 7.625 171.917 8.42708 171.917 9.35937V17H168.589V9.95312C168.594 9.21875 168.407 8.64583 168.026 8.23438C167.646 7.81771 167.123 7.60937 166.456 7.60937C166.008 7.60937 165.612 7.70573 165.269 7.89844C164.93 8.09115 164.664 8.3724 164.472 8.74219C164.284 9.10677 164.188 9.54688 164.183 10.0625ZM180.009 17.2344C178.774 17.2344 177.712 16.9844 176.821 16.4844C175.936 15.9792 175.254 15.2656 174.774 14.3437C174.295 13.4167 174.056 12.3203 174.056 11.0547C174.056 9.82031 174.295 8.73698 174.774 7.80469C175.254 6.8724 175.928 6.14583 176.798 5.625C177.673 5.10417 178.699 4.84375 179.876 4.84375C180.668 4.84375 181.405 4.97135 182.087 5.22656C182.774 5.47656 183.373 5.85417 183.884 6.35937C184.399 6.86458 184.8 7.5 185.087 8.26562C185.373 9.02604 185.517 9.91667 185.517 10.9375V11.8516H175.384V9.78906H182.384C182.384 9.3099 182.28 8.88542 182.071 8.51563C181.863 8.14583 181.574 7.85677 181.204 7.64844C180.84 7.4349 180.415 7.32812 179.931 7.32812C179.425 7.32812 178.978 7.44531 178.587 7.67969C178.201 7.90885 177.899 8.21875 177.681 8.60937C177.462 8.99479 177.35 9.42448 177.345 9.89844V11.8594C177.345 12.4531 177.454 12.9661 177.673 13.3984C177.897 13.8307 178.212 14.1641 178.618 14.3984C179.024 14.6328 179.506 14.75 180.063 14.75C180.433 14.75 180.772 14.6979 181.079 14.5938C181.386 14.4896 181.649 14.3333 181.868 14.125C182.087 13.9167 182.254 13.6615 182.368 13.3594L185.446 13.5625C185.29 14.3021 184.97 14.9479 184.485 15.5C184.006 16.0469 183.386 16.474 182.626 16.7813C181.871 17.0833 180.998 17.2344 180.009 17.2344Z" fill="#fffF"/>
</svg>
